<?xml version="1.0" encoding="UTF-8"?>
<svg id="Layer_1" data-name="Layer 1" xmlns="http://www.w3.org/2000/svg" viewBox="0 0 30 52">
  <defs>
    <style>
      .cls-1 {
        fill: #fffefe;
      }
    </style>
  </defs>
  <polygon class="cls-1" points="22.5 22.28 22.5 14.86 15 14.86 15 14.86 15 7.43 7.5 7.43 7.5 7.43 7.5 7.43 7.5 0 0 0 0 7.43 0 7.43 0 14.86 0 14.86 0 22.28 0 22.28 0 29.72 0 37.14 0 44.57 0 44.57 0 52 7.5 52 7.5 44.57 7.5 44.57 7.5 44.57 15 44.57 15 37.14 15 37.14 22.5 37.14 22.5 29.72 30 29.72 30 22.28 22.5 22.28"/>
</svg>