<svg width="420" height="120" viewBox="0 0 420 120" fill="none" xmlns="http://www.w3.org/2000/svg">
<path d="M104.702 90H94.7358V100H104.702V90Z" fill="white"/>
<path d="M114.668 80H104.702V90H114.668V80Z" fill="white"/>
<path d="M74.8038 90H64.8378V100H74.8038V90Z" fill="white"/>
<path d="M84.7699 80H74.8038V90H84.7699V80Z" fill="white"/>
<path d="M44.9321 90H34.9661V100H44.9321V90Z" fill="white"/>
<path d="M54.8718 80H44.9321V90H54.8718V80Z" fill="white"/>
<path d="M134.6 50V70H25V50H34.966V40.0265H44.9321V30H64.8378V20H104.702V30H114.668V40.0265H124.634V50H134.6Z" fill="white"/>
<path d="M201.777 85.5V43.5H176.577V85.5H184.977V51.9H193.377V85.5H201.777ZM235.351 85.5V77.1H218.551V68.7H226.951V60.3H218.551V51.9H235.351V43.5H210.151V85.5H235.351ZM268.926 85.5V43.5H260.526V60.3H252.126V43.5H243.726V68.7H260.526V85.5H268.926ZM302.5 85.5V43.5H277.3V85.5H285.7V68.7H294.1V85.5H302.5ZM294.1 60.3H285.7V51.9H294.1V60.3ZM336.074 85.5V43.5H319.274V51.9H327.674V85.5H336.074ZM319.274 85.5V51.9H310.874V85.5H319.274ZM369.648 85.5V60.3H352.848V43.5H344.448V85.5H369.648ZM361.248 77.1H352.848V68.7H361.248V77.1Z" fill="#FFFEFE"/>
<rect x="3" y="3" width="414" height="114" stroke="#FFFEFE" stroke-width="6"/>
</svg>
