<svg width="449" height="120" viewBox="0 0 449 120" fill="none" xmlns="http://www.w3.org/2000/svg">
<path d="M96.1085 37.783V55.566H105V64.4575H96.1085V91.132H105V100H78.3255V91.132H87.217V64.4575H78.3255V55.566H87.217V37.783H78.3255V46.698H51.651V37.783H42.7595V55.566H51.651V64.4575H42.7595V91.132H51.651V100H25V91.132H33.8915V64.4575H25V55.566H33.8915V37.783H25V20H42.7595V28.915H87.217V20H105V37.783H96.1085Z" fill="#FFFEFE"/>
<path d="M138.4 85.5V51.9H155.2V43.5H130V85.5H138.4ZM188.774 85.5V43.5H163.574V85.5H171.974V68.7H180.374V85.5H188.774ZM180.374 60.3H171.974V51.9H180.374V60.3ZM222.348 68.7V43.5H197.148V85.5H205.548V68.7H222.348ZM213.948 60.3H205.548V51.9H213.948V60.3ZM230.723 43.5V85.5H239.123V60.3H247.523V68.7H255.923V60.3H247.523V51.9H239.123V43.5H230.723ZM264.323 60.3V85.5H272.723V43.5H264.323V51.9H255.923V60.3H264.323ZM306.313 85.5V43.5H281.113V85.5H306.313ZM297.913 77.1H289.513V51.9H297.913V77.1ZM339.888 85.5V43.5H331.488V60.3H323.088V43.5H314.688V85.5H323.088V68.7H331.488V85.5H339.888ZM348.262 85.5H356.662V77.1H365.062V68.7H356.662V43.5H348.262V85.5ZM373.462 68.7V85.5H381.862V43.5H373.462V60.3H365.062V68.7H373.462ZM415.473 85.5V43.5H390.273V60.3H398.673V68.7H407.073V85.5H415.473ZM398.673 85.5V68.7H390.273V85.5H398.673ZM407.073 60.3H398.673V51.9H407.073V60.3Z" fill="#FFFEFE"/>
<rect x="3" y="3" width="443" height="114" stroke="#FFFEFE" stroke-width="6"/>
</svg>
