<svg width="407" height="120" viewBox="0 0 407 120" fill="none" xmlns="http://www.w3.org/2000/svg">
<path d="M87.217 28.8915H96.132V37.783H87.217V28.8915ZM60.566 20H69.434V28.8915H60.566V20ZM33.915 28.8915H42.783V37.783H33.915V28.8915ZM25 64.4575V55.566H33.915V64.4575H25ZM42.783 91.132H33.915V82.2405H42.783V91.132ZM69.434 100H60.566V91.132H69.434V100ZM78.349 82.2405H51.651V73.349H42.783V46.6745H51.651V37.783H78.349V46.6745H87.217V73.349H78.349V82.2405ZM96.132 91.132H87.217V82.2405H96.132V91.132ZM105 64.4575H96.132V55.566H105V64.4575Z" fill="#FFFEFE"/>
<path d="M33.915 55.566H25V64.4575H33.915V55.566Z" fill="#FFFEFE"/>
<path d="M42.783 28.8916H33.915V37.7831H42.783V28.8916Z" fill="#FFFEFE"/>
<path d="M69.4339 20H60.5659V28.8915H69.4339V20Z" fill="#FFFEFE"/>
<path d="M96.1321 28.8916H87.217V37.7831H96.1321V28.8916Z" fill="#FFFEFE"/>
<path d="M105 55.566H96.1321V64.4575H105V55.566Z" fill="#FFFEFE"/>
<path d="M96.1321 82.2407H87.217V91.1322H96.1321V82.2407Z" fill="#FFFEFE"/>
<path d="M69.4339 91.132H60.5659V99.9999H69.4339V91.132Z" fill="#FFFEFE"/>
<path d="M42.783 82.2407H33.915V91.1322H42.783V82.2407Z" fill="#FFFEFE"/>
<path d="M87.2169 46.6746V73.3491H78.349V82.2406H51.6509V73.3491H42.783V46.6746H51.6509V37.7831H78.349V46.6746H87.2169Z" fill="#FFFEFE"/>
<path d="M155.2 68.7V43.5H130V85.5H138.4V68.7H155.2ZM146.8 60.3H138.4V51.9H146.8V60.3ZM188.774 85.5V43.5H163.574V85.5H171.974V68.7H180.374V85.5H188.774ZM180.374 60.3H171.974V51.9H180.374V60.3ZM222.348 77.1H213.948V51.9H205.548V77.1H197.148V85.5H239.148V77.1H230.748V43.5H213.948V51.9H222.348V77.1ZM272.739 85.5V43.5H247.539V85.5H272.739ZM264.339 77.1H255.939V51.9H264.339V77.1ZM306.313 85.5V77.1H289.513V51.9H306.313V43.5H281.113V85.5H306.313ZM314.688 43.5V51.9H323.088V85.5H331.488V51.9H339.888V43.5H314.688ZM373.462 85.5V60.3H356.662V43.5H348.262V85.5H373.462ZM365.062 77.1H356.662V68.7H365.062V77.1Z" fill="#FFFEFE"/>
<rect x="3" y="3" width="401" height="114" stroke="#FFFEFE" stroke-width="6"/>
</svg>
