<svg width="537" height="318" viewBox="0 0 537 318" fill="none" xmlns="http://www.w3.org/2000/svg">
<path d="M354.5 214.971H351.5V211.971V188.475H285H282V185.475V161.978H172.1H169.1V158.978V132.482V105.985V79.489V52.9927V26.4963V3H147.52H122.94H98.3198H76.7399V26.4963V52.9927V79.489V82.489H73.7399H52.1599V105.985V108.985H49.1599H24.5799H3V132.482V158.978V185.475V208.971H24.5799H27.5799V211.971V238.467V261.964H49.1599H73.7399H98.3198H122.94H125.94V264.964V291.46V315H147.52H172.1H196.68H221.26H245.84H512.42H534V291.46V264.964V241.467H512.42H403.5H400.5V238.467V214.971H354.5Z" fill="#FFFEFE" stroke="#4E4E4E" stroke-width="6"/>
</svg>
