<svg width="298" height="454" viewBox="0 0 298 454" fill="none" xmlns="http://www.w3.org/2000/svg">
<path d="M102.361 160.264V157.264H99.3606L74.5307 157.264H49.6598H24.8299H3L3 133.561L3 106.857L3 80.1539L3 56.4507L24.8299 56.4507H49.6598L74.5307 56.4507H99.3606L124.191 56.4507H127.191V53.4507L127.191 26.7033V3L149.02 3L173.85 3L198.68 3L223.51 3L248.34 3L270.17 3V26.7033V53.4507V77.1539H248.34H223.51H220.51V80.1539L220.51 106.857V109.857H223.51H245.34V133.561V136.561H248.34L273.17 136.561H295V160.264L295 186.967V213.67V240.374V264.077H273.17H248.34H245.34V267.077L245.34 293.78V320.484V323.484H248.34H273.17H295V347.187V373.89V400.593V427.297V451H273.17H248.34H223.51H201.68L201.68 427.297V400.593V373.89V370.89H198.68H176.85V347.187V344.187L173.85 344.187H152.02V320.484V317.484H149.02H124.191H102.361L102.361 293.78V290.78H99.3606H77.5307V267.077V240.374L77.5307 213.67V189.967L99.3606 189.967H102.361V186.967V160.264Z" fill="#FFFEFE" stroke="#4E4E4E" stroke-width="6"/>
</svg>
