<svg width="314" height="431" viewBox="0 0 314 431" fill="none" xmlns="http://www.w3.org/2000/svg">
<path d="M81.5324 314.455L81.5324 311.455L78.5324 311.455L52.3693 311.455L29.2063 311.455L29.2063 285.821L29.2063 257.234L29.2063 254.234L26.2063 254.234L2.99999 254.234L2.99999 228.647L2.99999 200.06L2.99999 171.474L2.99999 145.934L26.2063 145.934L52.3693 145.934L78.5324 145.934L104.695 145.934L130.858 145.934L133.858 145.934L133.858 142.934L133.858 114.3L133.858 88.7604L157.022 88.7604L183.185 88.7604L186.185 88.7604L186.185 85.7604L186.185 57.1736L186.185 28.5868L186.185 2.99999L209.348 3L235.511 3L261.674 3L284.837 3L284.837 28.5868L284.837 57.1736L284.837 85.7604L284.837 114.3L284.837 117.3L287.837 117.3L311 117.3L311 142.934L311 171.474L311 197.06L287.837 197.06L284.837 197.06L284.837 200.06L284.837 228.647L284.837 254.234L261.674 254.234L235.511 254.234L209.348 254.234L183.185 254.234L180.185 254.234L180.185 257.234L180.185 285.821L180.185 311.455L157.022 311.455L154.022 311.455L154.022 314.455L154.022 343.042L154.022 428L130.858 428L104.695 428L81.5324 428L81.5324 343.042L81.5324 314.455Z" fill="#FFFEFE" stroke="#4E4E4E" stroke-width="6"/>
</svg>
