<svg width="492" height="337" viewBox="0 0 492 337" fill="none" xmlns="http://www.w3.org/2000/svg">
<path d="M436.699 305.874L433.699 305.874L433.699 308.874L433.699 334L409.049 334L381.353 334L353.703 334L329.053 334L329.053 308.874L329.053 305.874L326.053 305.874L298.403 305.874L224.202 305.874L224.202 280.795L224.202 252.715L224.202 224.636L224.202 221.636L221.202 221.636L193.552 221.636L168.902 221.636L168.902 196.556L168.902 168.477L168.902 165.477L165.902 165.477L138.251 165.477L110.601 165.477L85.9507 165.477L85.9507 140.397L85.9507 112.318L85.9507 84.2384L85.9507 81.2384L82.9507 81.2384L55.3005 81.2384L52.3005 81.2384L52.3005 84.2384L52.3005 112.318L52.3005 137.397L27.6502 137.397L2.99999 137.397L3 112.318L3 84.2384L3 56.1589L3 28.0794L3 2.99998L27.6502 2.99998L55.3005 2.99998L82.9507 2.99998L110.601 2.99998L138.251 2.99998L162.902 2.99999L162.902 28.0794L162.902 56.1589L162.902 59.1589L165.902 59.1589L193.552 59.1589L218.202 59.1589L218.202 84.2384L218.202 112.318L218.202 115.318L221.202 115.318L298.403 115.318L323.053 115.318L323.053 140.397L323.053 143.397L326.053 143.397L353.703 143.397L378.353 143.397L378.353 168.477L378.353 171.477L381.353 171.477L406.049 171.477L406.049 196.556L406.049 224.636L406.049 252.715L406.049 255.715L409.049 255.715L436.7 255.715L439.7 255.715L439.7 252.715L439.7 227.636L464.35 227.636L489 227.636L489 252.715L489 280.795L489 305.874L464.35 305.874L436.699 305.874Z" fill="#FFFEFE" stroke="#4E4E4E" stroke-width="6"/>
</svg>
