<svg width="530" height="122" viewBox="0 0 530 122" fill="none" xmlns="http://www.w3.org/2000/svg">
<path d="M82.3294 57.8258V64.191H75.9576V57.8258H69.5858H63.214H56.8422V64.191V70.5561V76.9213V83.2865V89.6348V96H50.4704H44.0985H37.7267V89.6348V83.2865H44.0985V89.6348H50.4704V83.2865V76.9213V70.5561V64.191V57.8258H44.0985H37.7267H31.3718V64.191H25V57.8258V51.4607V45.0955H31.3718V38.7303H37.7267V32.3652H44.0985H50.4704V26H56.8422V32.3652H63.214H69.5858V38.7303H75.9576V45.0955H82.3294V51.4607V57.8258Z" fill="#FFFEFE"/>
<path d="M142.652 78.1V44.5H134.252V61.3H125.852V44.5H117.452V69.7H134.252V78.1H142.652ZM134.252 86.5V78.1H117.452V86.5H134.252ZM176.227 86.5V78.1H159.427V52.9H176.227V44.5H151.027V86.5H176.227ZM209.801 86.5V44.5H184.601V86.5H193.001V52.9H201.401V86.5H209.801ZM243.375 86.5V44.5H218.175V86.5H243.375ZM234.975 78.1H226.575V52.9H234.975V78.1ZM276.949 86.5V69.7H268.549V61.3H260.149V44.5H251.749V86.5H260.149V69.7H268.549V86.5H276.949ZM276.949 61.3V44.5H268.549V61.3H276.949ZM310.523 86.5V44.5H285.323V86.5H310.523ZM302.123 78.1H293.723V52.9H302.123V78.1ZM318.898 86.5H327.298V78.1H335.698V69.7H327.298V44.5H318.898V86.5ZM344.098 69.7V86.5H352.498V44.5H344.098V61.3H335.698V69.7H344.098ZM360.909 44.5V52.9H369.309V86.5H377.709V52.9H386.109V44.5H360.909ZM419.684 86.5V61.3H402.884V44.5H394.484V86.5H419.684ZM411.284 78.1H402.884V69.7H411.284V78.1ZM453.258 86.5V78.1H436.458V52.9H453.258V44.5H428.058V86.5H453.258ZM486.832 86.5V44.5H461.632V61.3H470.032V69.7H478.432V86.5H486.832ZM470.032 86.5V69.7H461.632V86.5H470.032ZM478.432 61.3H470.032V52.9H478.432V61.3Z" fill="#FFFEFE"/>
<rect x="3" y="3" width="524" height="116" stroke="#FFFEFE" stroke-width="6"/>
</svg>
