<svg width="60" height="60" viewBox="0 0 60 60" fill="none" xmlns="http://www.w3.org/2000/svg">
<path d="M53.3337 0H46.6674H40.001H33.3316H26.6653H19.999H13.3326H6.66632H0V6.66632V13.3326V19.999V26.6653V33.3316V40.001V46.6674V53.3337V60H6.66632H13.3326H19.999H26.6653H33.3316H40.001H46.6674H53.3337H60V53.3337V46.6674V40.001V33.3316V26.6653V19.999V13.3326V6.66632V0H53.3337ZM53.3337 13.3326V19.999V26.6653V33.3316V40.001V46.6674V53.3337H46.6674H40.001H33.3316H26.6653H19.999H13.3326H6.66632V46.6674V40.001V33.3316V26.6653V19.999V13.3326V6.66632H13.3326H19.999H26.6653H33.3316H40.001H46.6674H53.3337V13.3326Z" fill="#4E4E4E"/>
</svg>
