<svg width="60" height="60" viewBox="0 0 60 60" fill="none" xmlns="http://www.w3.org/2000/svg">
<path d="M53.3337 0H46.6674H40.001H33.3316H26.6653H19.999H13.3326H6.66632H0V6.66632V13.3326V19.999V26.6653V33.3316V40.001V46.6674V53.3337V60H6.66632H13.3326H19.999H26.6653H33.3316H40.001H46.6674H53.3337H60V53.3337V46.6674V40.001V33.3316V26.6653V19.999V13.3326V6.66632V0H53.3337ZM53.3337 13.3326V19.999V26.6653V33.3316V40.001V46.6674V53.3337H46.6674H40.001H33.3316H26.6653H19.999H13.3326H6.66632V46.6674V40.001V33.3316V26.6653V19.999V13.3326V6.66632H13.3326H19.999H26.6653H33.3316H40.001H46.6674H53.3337V13.3326Z" fill="#4E4E4E"/>
<path d="M40.001 36.3326L33.3315 36.3326L33.3315 43.0021L40.001 43.0021L40.001 36.3326Z" fill="#4E4E4E"/>
<path d="M13 17.6694L19.6694 17.6694L19.6694 11L13 11L13 17.6694Z" fill="#4E4E4E"/>
<path d="M33.3314 43.0021L26.665 43.0021L26.665 49.6684L33.3314 49.6684L33.3314 43.0021Z" fill="#4E4E4E"/>
<path d="M26.6653 36.3326L19.999 36.3326L19.999 43.0021L26.6653 43.0021L26.6653 36.3326Z" fill="#4E4E4E"/>
<path d="M40.0002 17.6694L46.6665 17.6694L46.6665 11L40.0002 11L40.0002 17.6694Z" fill="#4E4E4E"/>
</svg>
