<svg width="50" height="50" viewBox="0 0 50 50" fill="none" xmlns="http://www.w3.org/2000/svg">
<path d="M44.4444 0H0V50H50V0H44.4444ZM44.4444 11.1111V44.4444H5.55556V5.55556H44.4444V11.1111Z" fill="#FFFEFE"/>
<path d="M38.8889 33.3333H33.3333V38.8889H38.8889V33.3333Z" fill="#FFFEFE"/>
<path d="M38.8889 11.1111H33.3333V16.6667H38.8889V11.1111Z" fill="#FFFEFE"/>
<path d="M33.3333 27.7778H27.7778V33.3333H33.3333V27.7778Z" fill="#FFFEFE"/>
<path d="M33.3333 16.6667H27.7778V22.2222H33.3333V16.6667Z" fill="#FFFEFE"/>
<path d="M27.7778 22.2222H22.2222V27.7778H27.7778V22.2222Z" fill="#FFFEFE"/>
<path d="M22.2222 27.7778H16.6667V33.3333H22.2222V27.7778Z" fill="#FFFEFE"/>
<path d="M22.2222 16.6667H16.6667V22.2222H22.2222V16.6667Z" fill="#FFFEFE"/>
<path d="M16.6667 33.3333H11.1111V38.8889H16.6667V33.3333Z" fill="#FFFEFE"/>
<path d="M16.6667 11.1111H11.1111V16.6667H16.6667V11.1111Z" fill="#FFFEFE"/>
</svg>
