<svg width="532" height="142" viewBox="0 0 532 142" fill="none" xmlns="http://www.w3.org/2000/svg">
<rect x="3" y="3" width="526" height="136" fill="white"/>
<rect x="15" y="15" width="502" height="111" fill="white"/>
<path d="M117.722 87.6373V101.322H110.864V94.4886H104.005V87.6373H62.8734V80.7861H110.864V87.6373H117.722Z" fill="#4E4E4E"/>
<path d="M124.581 67.0835H56.0151V73.9347H124.581V67.0835Z" fill="#4E4E4E"/>
<path d="M117.722 39.6785V53.3809H110.864V60.2321H62.8733V53.3809H104.005V46.5297H110.864V39.6785H117.722Z" fill="#4E4E4E"/>
<path d="M239.429 36.2527H191.439V43.1039H239.429V36.2527Z" fill="#4E4E4E"/>
<path d="M239.429 43.1042V77.3603H191.439V43.1042H184.581V97.9139H191.439V104.747H198.279V97.9139H232.571V104.747H239.429V97.9139H246.288V43.1042H239.429ZM198.279 91.0627H191.439V84.2115H198.279V91.0627ZM239.429 91.0627H232.571V84.2115H239.429V91.0627Z" fill="#4E4E4E"/>
<path d="M326.844 36.2529H319.986V43.1041H326.844V36.2529Z" fill="#4E4E4E"/>
<path d="M333.703 29.4019H326.844V36.2531H333.703V29.4019Z" fill="#4E4E4E"/>
<path d="M340.561 36.2529H333.703V43.1041H340.561V36.2529Z" fill="#4E4E4E"/>
<path d="M319.986 70.5085H313.128V77.3598H319.986V70.5085Z" fill="#4E4E4E"/>
<path d="M347.42 63.6575H340.561V70.5087H347.42V63.6575Z" fill="#4E4E4E"/>
<path d="M354.278 91.0625V97.9137H347.42V111.598H313.128V97.9137H306.288V91.0625H326.844V84.2113H319.986V77.36H326.844V43.104H333.703V70.5088H340.561V77.36H333.703V91.0625H354.278Z" fill="#4E4E4E"/>
<path d="M475.985 39.6787V53.3811H469.126V67.0835H475.985V73.9348H469.126V94.4884H475.985V101.321H455.41V94.4884H462.268V73.9348H455.41V67.0835H462.268V53.3811H455.41V60.2323H434.835V53.3811H427.976V67.0835H434.835V73.9348H427.976V94.4884H434.835V101.321H414.278V94.4884H421.136V73.9348H414.278V67.0835H421.136V53.3811H414.278V39.6787H427.976V46.5299H462.268V39.6787H475.985Z" fill="#4E4E4E"/>
<rect x="15" y="15" width="502" height="111" stroke="#4E4E4E" stroke-width="6"/>
<rect x="3" y="3" width="526" height="136" stroke="#4E4E4E" stroke-width="6"/>
</svg>
