<svg width="532" height="142" viewBox="0 0 532 142" fill="none" xmlns="http://www.w3.org/2000/svg">
<rect x="3" y="3" width="526" height="136" fill="white"/>
<rect x="15" y="15" width="502" height="111" fill="white"/>
<path d="M128.01 43.1042H121.151V77.3603H128.01V43.1042Z" fill="#4E4E4E"/>
<path d="M114.293 56.8069H107.435V63.6581H114.293V56.8069Z" fill="#4E4E4E"/>
<path d="M93.7177 56.8069H86.8594V63.6581H93.7177V56.8069Z" fill="#4E4E4E"/>
<path d="M121.151 77.3601V84.2113H93.7178V91.0444H86.8595V97.8956H80.0011V104.747H73.1427V84.2113H59.4442V77.3601H121.151Z" fill="#4E4E4E"/>
<path d="M73.1428 56.8069H66.3026V63.6581H73.1428V56.8069Z" fill="#4E4E4E"/>
<path d="M59.4444 43.1042H52.586V77.3603H59.4444V43.1042Z" fill="#4E4E4E"/>
<path d="M121.151 36.2529H59.4442V43.1041H121.151V36.2529Z" fill="#4E4E4E"/>
<path d="M236 60.2323H249.717V53.3811H236V39.6787H229.142V53.3811H208.567V39.6787H201.708V53.3811H188.01V60.2323H201.708V80.786H188.01V87.6372H201.708V101.321H208.567V87.6372H229.142V101.321H236V87.6372H249.717V80.786H236V60.2323ZM229.142 80.786H208.567V60.2323H229.142V80.786Z" fill="#4E4E4E"/>
<path d="M350.849 87.637H330.274V94.47H350.849V87.637Z" fill="#4E4E4E"/>
<path d="M343.99 101.321H337.132V108.172H343.99V101.321Z" fill="#4E4E4E"/>
<path d="M357.707 73.9346H316.575V80.7858H357.707V73.9346Z" fill="#4E4E4E"/>
<path d="M350.849 60.2322H309.717V67.0834H350.849V60.2322Z" fill="#4E4E4E"/>
<path d="M357.707 46.53H316.575V53.3812H357.707V46.53Z" fill="#4E4E4E"/>
<path d="M371.424 32.8274H309.717V39.6786H371.424V32.8274Z" fill="#4E4E4E"/>
<path d="M465.697 87.6373V108.173H458.839V94.4886H438.264V108.173H431.424V80.7861H438.264V87.6373H465.697Z" fill="#4E4E4E"/>
<path d="M445.122 73.9346H438.264V80.7858H445.122V73.9346Z" fill="#4E4E4E"/>
<path d="M445.122 32.8274V73.9346H472.556V80.7859H465.697V87.6371H472.556V101.321H479.414V32.8274H445.122ZM472.556 67.0834H451.981V39.6786H472.556V67.0834Z" fill="#4E4E4E"/>
<rect x="15" y="15" width="502" height="111" stroke="#4E4E4E" stroke-width="6"/>
<rect x="3" y="3" width="526" height="136" stroke="#4E4E4E" stroke-width="6"/>
</svg>
