<svg width="532" height="142" viewBox="0 0 532 142" fill="none" xmlns="http://www.w3.org/2000/svg">
<rect x="3" y="3" width="526" height="136" fill="white"/>
<rect x="15" y="15" width="502" height="111" fill="white"/>
<path d="M70.1146 46.4336H63.3002V53.2848H70.1146V46.4336Z" fill="#4E4E4E"/>
<path d="M63.3003 66.9875H56.4679V73.8388H63.3003V66.9875Z" fill="#4E4E4E"/>
<path d="M70.1146 87.5415H63.3002V94.3927H70.1146V87.5415Z" fill="#4E4E4E"/>
<path d="M90.6119 94.3923H83.7794V101.225H90.6119V94.3923Z" fill="#4E4E4E"/>
<path d="M111.109 87.5415H104.277V94.3927H111.109V87.5415Z" fill="#4E4E4E"/>
<path d="M117.942 66.9875H111.11V73.8388H117.942V66.9875Z" fill="#4E4E4E"/>
<path d="M111.109 46.4336H104.277V53.2848H111.109V46.4336Z" fill="#4E4E4E"/>
<path d="M104.277 73.8383V80.6895H97.4445V87.5407H90.612H83.7795H76.947V80.6895H70.1146V73.8383V66.9871V60.1359H76.947V53.2847H83.7795H90.612H97.4445V60.1359H104.277V66.9871V73.8383Z" fill="#4E4E4E"/>
<rect x="84.3138" y="39.7747" width="6.88555" height="6.88555" fill="#4E4E4E"/>
<path d="M205.254 36.2532H198.421V43.1044H205.254V36.2532Z" fill="#4E4E4E"/>
<path d="M218.919 36.2532H212.086V43.1044H218.919V36.2532Z" fill="#4E4E4E"/>
<path d="M212.086 43.104H205.254V49.9552H212.086V43.104Z" fill="#4E4E4E"/>
<path d="M239.416 63.6576V70.5088H232.584V77.3601H225.751V84.2113V91.0625H232.584V97.8955V104.747H225.751H218.919V97.8955V91.0625H212.086V84.2113H205.254V91.0625H198.422V97.8955V104.747H191.589H184.775V97.8955V91.0625H191.589V84.2113V77.3601H184.775V70.5088H177.942V63.6576V56.8064V49.9552V43.104H184.775H191.589V49.9552H198.422H205.254V56.8064V63.6576V70.5088V77.3601H212.086V70.5088V63.6576V56.8064V49.9552H218.919H225.751V43.104H232.584H239.416V49.9552V56.8064V63.6576ZM232.584 63.6576V56.8064H225.751V63.6576H232.584ZM191.589 63.6576V56.8064H184.775V63.6576H191.589Z" fill="#4E4E4E"/>
<path d="M374.555 49.9555V56.8067H367.723V63.6579H360.89V70.5091H354.058V77.3603H347.225V84.2115H340.393V91.0446H333.561V97.8958H326.728V91.0446H319.896V84.2115H313.081V77.3603H306.249V70.5091H299.416V63.6579V56.8067H306.249V63.6579H313.081V70.5091H319.896V77.3603H326.728V84.2115H333.561V77.3603H340.393V70.5091H347.225V63.6579H354.058V56.8067H360.89V49.9555H367.723V43.1042H374.555V49.9555Z" fill="#4E4E4E"/>
<path d="M448.202 80.7856H441.37V87.6369H448.202V80.7856Z" fill="#4E4E4E"/>
<path d="M475.532 73.9346H468.7V80.7858H475.532V73.9346Z" fill="#4E4E4E"/>
<path d="M475.532 46.5298V53.381H468.7V60.2322H461.867V67.0834V73.9347V80.7859H468.7V87.6371H461.867V94.4701V101.321V108.173H455.035V101.321V94.4701H448.202V87.6371H455.035V80.7859V73.9347V67.0834V60.2322H448.202H441.37V53.381H434.555V46.5298H441.37V39.6786V32.8274H448.202H455.035H461.867H468.7V39.6786H475.532V46.5298Z" fill="#4E4E4E"/>
<rect x="15" y="15" width="502" height="111" stroke="#4E4E4E" stroke-width="6"/>
<rect x="3" y="3" width="526" height="136" stroke="#4E4E4E" stroke-width="6"/>
</svg>
