<svg width="532" height="142" viewBox="0 0 532 142" fill="none" xmlns="http://www.w3.org/2000/svg">
<rect x="3" y="3" width="526" height="136" fill="white"/>
<rect x="15" y="15" width="502" height="111" fill="white"/>
<path d="M114.293 49.9551H107.435V56.8063H114.293V49.9551Z" fill="#4E4E4E"/>
<path d="M93.7175 77.3601V84.2113H86.8592H80.0008H73.1425V77.3601V70.5089V63.6577H80.0008H86.8592H93.7175V70.5089V77.3601Z" fill="#4E4E4E"/>
<path d="M100.576 49.9555V56.8067H93.7176H86.8593H80.0009H73.1426H66.2842V49.9555V43.1042H73.1426V49.9555H80.0009V43.1042H86.8593V49.9555H93.7176V43.1042H100.576V49.9555Z" fill="#4E4E4E"/>
<path d="M107.434 56.8064H100.576V63.6576H107.434V56.8064Z" fill="#4E4E4E"/>
<path d="M107.434 84.2114H100.576V91.0627H107.434V84.2114Z" fill="#4E4E4E"/>
<path d="M114.293 77.3601V84.2113H107.435V77.3601V70.5089V63.6577H114.293V70.5089V77.3601Z" fill="#4E4E4E"/>
<path d="M100.576 91.063V97.8961H93.7176H86.8593H80.0009H73.1426H66.2842V91.063H73.1426H80.0009H86.8593H93.7176H100.576Z" fill="#4E4E4E"/>
<path d="M66.2843 84.2114H59.4441V91.0627H66.2843V84.2114Z" fill="#4E4E4E"/>
<path d="M59.4442 77.3601V84.2113H52.5858V77.3601V70.5089V63.6577H59.4442V70.5089V77.3601Z" fill="#4E4E4E"/>
<path d="M66.2843 56.8064H59.4441V63.6576H66.2843V56.8064Z" fill="#4E4E4E"/>
<path d="M59.4442 49.9551H52.5858V56.8063H59.4442V49.9551Z" fill="#4E4E4E"/>
<path d="M229.142 43.1042H222.283V49.9555H229.142V43.1042Z" fill="#4E4E4E"/>
<path d="M222.283 49.9551H215.425V56.8063H222.283V49.9551Z" fill="#4E4E4E"/>
<path d="M215.425 56.8064H208.567V63.6576H215.425V56.8064Z" fill="#4E4E4E"/>
<path d="M208.567 63.6577H201.708V70.5089H208.567V63.6577Z" fill="#4E4E4E"/>
<path d="M201.708 70.5088H194.85V77.36H201.708V70.5088Z" fill="#4E4E4E"/>
<path d="M194.85 77.3604H187.991V84.2116H194.85V77.3604Z" fill="#4E4E4E"/>
<path d="M187.991 84.2114H181.133V91.0627H187.991V84.2114Z" fill="#4E4E4E"/>
<path d="M181.133 91.063H174.293V97.8961H181.133V91.063Z" fill="#4E4E4E"/>
<path d="M350.849 67.0834V73.9346H343.99V67.0834H337.132H330.274H323.415V73.9346V80.7858V87.637V94.4883V101.321V108.173H316.557H309.699H302.84V101.321V94.4883H309.699V101.321H316.557V94.4883V87.637V80.7858V73.9346V67.0834H309.699H302.84H296V73.9346H289.142V67.0834V60.2322V53.381H296V46.5298H302.84V39.6786H309.699H316.557V32.8274H323.415V39.6786H330.274H337.132V46.5298H343.99V53.381H350.849V60.2322V67.0834Z" fill="#4E4E4E"/>
<path d="M472.556 94.4884V101.321H465.697V94.4884H458.839V87.6371H451.981H445.122H438.264H431.406H424.565H417.707V80.7859H424.565H431.406H438.264H445.122H451.981H458.839H465.697V87.6371H472.556V94.4884Z" fill="#4E4E4E"/>
<path d="M479.414 67.0833V73.9345H472.556H465.697H458.839H451.981H445.122H438.264H431.406H424.565H417.707H410.849V67.0833H417.707H424.565H431.406H438.264H445.122H451.981H458.839H465.697H472.556H479.414Z" fill="#4E4E4E"/>
<path d="M472.556 46.5299V53.3811H465.697V60.2323H458.839H451.981H445.122H438.264H431.406H424.565H417.707V53.3811H424.565H431.406H438.264H445.122H451.981H458.839V46.5299H465.697V39.6787H472.556V46.5299Z" fill="#4E4E4E"/>
<rect x="15" y="15" width="502" height="111" stroke="#4E4E4E" stroke-width="6"/>
<rect x="3" y="3" width="526" height="136" stroke="#4E4E4E" stroke-width="6"/>
</svg>
