<svg width="532" height="142" viewBox="0 0 532 142" fill="none" xmlns="http://www.w3.org/2000/svg">
<rect x="3" y="3" width="526" height="136" fill="white"/>
<rect x="15" y="15" width="502" height="111" fill="white"/>
<path d="M107.529 46.2659H100.591V53.1878H107.529V46.2659Z" fill="#4E4E4E"/>
<path d="M100.591 53.1877H93.6615V60.1193H100.591V53.1877Z" fill="#4E4E4E"/>
<path d="M107.529 60.1196H100.591V67.0416H107.529V60.1196Z" fill="#4E4E4E"/>
<path d="M100.591 80.8996V94.734H93.6615V87.8264H58.9868V94.734H52.0721V80.8996H58.9868V73.9729H93.6615V80.8996H100.591Z" fill="#4E4E4E"/>
<path d="M52.0721 60.1196H45.1333V67.0416H52.0721V60.1196Z" fill="#4E4E4E"/>
<path d="M58.9868 53.1877H52.0721V60.1193H58.9868V53.1877Z" fill="#4E4E4E"/>
<path d="M52.072 46.2659H45.1332V53.1878H52.072V46.2659Z" fill="#4E4E4E"/>
<path d="M210.199 70.5096V63.4006H203.088V49.1873H195.971V34.9692H188.86V49.1921H181.743V63.4054H174.627V70.5096H167.529V98.9218H174.627V106.031H210.204V98.9218H217.321V70.5096H210.199ZM192.408 77.6186H185.297V84.7277H178.18V77.6186H185.297V70.5096H192.408V77.6186Z" fill="#4E4E4E"/>
<path d="M334.511 91.9326H327.357V99.0704H334.511V91.9326Z" fill="#4E4E4E"/>
<path d="M341.652 84.79H334.507V91.9375H341.652V84.79Z" fill="#4E4E4E"/>
<path d="M313.057 91.9326H305.902V99.0704H313.057V91.9326Z" fill="#4E4E4E"/>
<path d="M320.202 84.79H313.057V91.9375H320.202V84.79Z" fill="#4E4E4E"/>
<path d="M291.621 91.9326H284.475V99.0704H291.621V91.9326Z" fill="#4E4E4E"/>
<path d="M298.756 84.79H291.621V91.9375H298.756V84.79Z" fill="#4E4E4E"/>
<path d="M355.957 63.3573V77.6425H277.321V63.3573H284.475V56.2195H291.621V49.0721H305.902V41.9294H334.507V49.0721H341.657V56.2195H348.807V63.3573H355.957Z" fill="#4E4E4E"/>
<path d="M486.867 59.8796H479.779V66.9695H486.867V59.8796Z" fill="#4E4E4E"/>
<path d="M486.867 74.0498H479.779V81.1397H486.867V74.0498Z" fill="#4E4E4E"/>
<path d="M472.682 74.0498H465.594V81.1397H472.682V74.0498Z" fill="#4E4E4E"/>
<path d="M479.779 66.9697H472.682V74.05H479.779V66.9697Z" fill="#4E4E4E"/>
<path d="M472.682 59.8796H465.594V66.9695H472.682V59.8796Z" fill="#4E4E4E"/>
<path d="M458.497 38.6245V102.376H451.409V95.3097H444.312V88.2246H437.215V52.7946H444.312V45.7096H451.409V38.6245H458.497Z" fill="#4E4E4E"/>
<path d="M430.142 59.8796V81.1396H423.054V74.0497H415.957V66.9695H423.054V59.8796H430.142Z" fill="#4E4E4E"/>
<rect x="15" y="15" width="502" height="111" stroke="#4E4E4E" stroke-width="6"/>
<rect x="3" y="3" width="526" height="136" stroke="#4E4E4E" stroke-width="6"/>
</svg>
