<svg width="532" height="142" viewBox="0 0 532 142" fill="none" xmlns="http://www.w3.org/2000/svg">
<rect x="3" y="3" width="526" height="136" fill="white"/>
<rect x="15" y="15" width="502" height="111" fill="white"/>
<path d="M73.1425 39.6787H66.2841V46.5299H73.1425V39.6787Z" fill="#4E4E4E"/>
<path d="M66.2842 46.5293H59.4258V53.3805H66.2842V46.5293Z" fill="#4E4E4E"/>
<path d="M73.1425 53.3809H66.2841V60.2321H73.1425V53.3809Z" fill="#4E4E4E"/>
<path d="M100.576 80.786V87.6372H93.718V80.786V73.9348H100.576V80.786Z" fill="#4E4E4E"/>
<path d="M93.7178 87.6369V94.47H86.8595V101.321H80.0011H73.1427H66.2844H59.426H52.5677V94.47H45.7275V87.6369V80.7857V73.9345V67.0833H52.5677H59.426H66.2844H73.1427H80.0011H86.8595H93.7178V73.9345H86.8595V80.7857V87.6369H93.7178Z" fill="#4E4E4E"/>
<path d="M187.992 91.0632V97.8963H181.133H174.293H167.435V91.0632H174.293H181.133H187.992Z" fill="#4E4E4E"/>
<path d="M229.142 91.0632V97.8963H222.283H215.425H208.567V91.0632H215.425H222.283H229.142Z" fill="#4E4E4E"/>
<path d="M236 84.2115V91.0627H229.142V84.2115V77.3603V70.5091V63.6579V56.8067V49.9555V43.1042H236V49.9555V56.8067V63.6579V70.5091V77.3603V84.2115Z" fill="#4E4E4E"/>
<path d="M229.142 36.2532V43.1044H222.283H215.425H208.567V36.2532H215.425H222.283H229.142Z" fill="#4E4E4E"/>
<path d="M208.566 97.8958V104.747H201.708H194.85H187.991V97.8958H194.85V91.0627V84.2115V77.3603V70.5091V63.6579V56.8067V49.9555H187.991V43.1042H194.85H201.708H208.566V49.9555H201.708V56.8067V63.6579V70.5091V77.3603V84.2115V91.0627V97.8958H208.566Z" fill="#4E4E4E"/>
<path d="M187.992 36.2532V43.1044H181.133H174.293H167.435V36.2532H174.293H181.133H187.992Z" fill="#4E4E4E"/>
<path d="M167.435 84.2115V91.0627H160.576V84.2115V77.3603V70.5091V63.6579V56.8067V49.9555V43.1042H167.435V49.9555V56.8067V63.6579V70.5091V77.3603V84.2115Z" fill="#4E4E4E"/>
<path d="M357.707 67.0835V73.9348H350.849V80.786V87.6372V94.4884V101.321H343.99H337.132H330.274H323.415V94.4884V87.6372V80.786H316.557H309.699V87.6372V94.4884V101.321H302.858V94.4884V87.6372V80.786V73.9348H296V67.0835H302.858V60.2323H309.699V53.3811H316.557V46.5299H323.415V39.6787H330.274V46.5299H337.132V53.3811H343.99V60.2323H350.849V67.0835H357.707ZM343.99 94.4884V87.6372V80.786H337.132H330.274V87.6372V94.4884H337.132H343.99Z" fill="#4E4E4E"/>
<path d="M472.556 60.2319H465.697V67.0831H472.556V60.2319Z" fill="#4E4E4E"/>
<path d="M479.414 53.3809H472.556V60.2321H479.414V53.3809Z" fill="#4E4E4E"/>
<path d="M486.273 60.2319H479.414V67.0831H486.273V60.2319Z" fill="#4E4E4E"/>
<path d="M486.273 80.7864H479.414V87.6376H486.273V80.7864Z" fill="#4E4E4E"/>
<path d="M479.414 73.9343H472.556V80.7855H479.414V73.9343Z" fill="#4E4E4E"/>
<path d="M472.556 80.7864H465.697V87.6376H472.556V80.7864Z" fill="#4E4E4E"/>
<path d="M431.424 73.9343V80.7856H424.565V73.9343H417.707V67.0831H424.565V60.2319H431.424V67.0831V73.9343Z" fill="#4E4E4E"/>
<path d="M458.839 94.4884V101.321H451.981V94.4884H445.122V87.6372H438.264V80.786V73.9348V67.0835V60.2323V53.3811H445.122V46.5299H451.981V39.6787H458.839V46.5299V53.3811V60.2323V67.0835V73.9348V80.786V87.6372V94.4884Z" fill="#4E4E4E"/>
<rect x="15" y="15" width="502" height="111" stroke="#4E4E4E" stroke-width="6"/>
<rect x="3" y="3" width="526" height="136" stroke="#4E4E4E" stroke-width="6"/>
</svg>
