<svg width="131" height="131" viewBox="0 0 131 131" fill="none" xmlns="http://www.w3.org/2000/svg">
<path d="M25.5 87.6641V93.8266H31.6538V87.6641V81.5015H25.5V87.6641Z" fill="#4E4E4E"/>
<path d="M37.8077 61.8236H31.6538V81.5015H37.8077V61.8236Z" fill="#4E4E4E"/>
<path d="M74.7308 87.6641V93.8266H80.8847V87.6641V81.5015H74.7308V87.6641Z" fill="#4E4E4E"/>
<path d="M99.3462 55.6611H93.2086V49.4985V49.0094L87.006 49.0583L87.0548 43.1566H80.8847V49.0094H74.7308V55.6611H68.5933V49.4985H62.4394V43.3359H56.2693V37.1734H50.1154V43.3359H43.9616V49.4985H37.8077V61.8236H50.1154V67.3504H56.2693V61.8236H68.5933V81.5015H74.7308V61.8236H80.8847V67.6112H87.006V61.8236H93.1924V81.5015H99.3462V61.8236V55.6611Z" fill="#4E4E4E"/>
<path d="M99.3462 81.5015V87.6641V93.8266H105.5V87.6641V81.5015H99.3462Z" fill="#4E4E4E"/>
<rect x="15.5" y="15.5" width="100" height="100" stroke="#4E4E4E" stroke-width="5"/>
<rect x="3" y="3" width="125" height="125" stroke="#4E4E4E" stroke-width="5"/>
</svg>
