<svg width="131" height="131" viewBox="0 0 131 131" fill="none" xmlns="http://www.w3.org/2000/svg">
<path d="M61.8532 87.3544H54.5787V94.6392H61.8532V87.3544Z" fill="#4E4E4E"/>
<path d="M83.6766 87.3544H76.4021V94.6392H83.6766V87.3544Z" fill="#4E4E4E"/>
<path d="M90.951 80.0696H83.6765V87.3544H90.951V80.0696Z" fill="#4E4E4E"/>
<path d="M69.1276 80.0696H61.8531V87.3544H69.1276V80.0696Z" fill="#4E4E4E"/>
<path d="M40.049 87.3544H32.7745V94.6392H40.049V87.3544Z" fill="#4E4E4E"/>
<path d="M47.3042 80.0696H40.049V87.3544H47.3042V80.0696Z" fill="#4E4E4E"/>
<path d="M105.5 58.2152V72.7848H25.5V58.2152H32.7745V50.9304H40.049V43.6456H54.5787V36.3609H83.6766V43.6456H90.9511V50.9304H98.2255V58.2152H105.5Z" fill="#4E4E4E"/>
<rect x="15.5" y="15.5" width="100" height="100" stroke="#4E4E4E" stroke-width="5"/>
<rect x="3" y="3" width="125" height="125" stroke="#4E4E4E" stroke-width="5"/>
</svg>
