<svg width="131" height="131" viewBox="0 0 131 131" fill="none" xmlns="http://www.w3.org/2000/svg">
<path d="M36.3358 61.3372H28V69.6848H36.3358V61.3372Z" fill="#4E4E4E"/>
<path d="M44.6495 86.38H36.3358V94.7276H44.6495V86.38Z" fill="#4E4E4E"/>
<path d="M69.6568 94.7276H61.321V103.053H69.6568V94.7276Z" fill="#4E4E4E"/>
<path d="M94.6642 86.38H86.3284V94.7276H94.6642V86.38Z" fill="#4E4E4E"/>
<path d="M103 61.3372H94.6642V69.6848H103V61.3372Z" fill="#4E4E4E"/>
<path d="M94.6642 36.2944H86.3284V44.642H94.6642V36.2944Z" fill="#4E4E4E"/>
<path d="M69.6568 27.9468H61.321V36.2944H69.6568V27.9468Z" fill="#4E4E4E"/>
<path d="M44.6495 36.2944H36.3358V44.642H44.6495V36.2944Z" fill="#4E4E4E"/>
<path d="M86.3285 52.9896V78.0324H77.9927V86.38H52.9853V78.0324H44.6495V52.9896H52.9853V44.642H77.9927V52.9896H86.3285Z" fill="#4E4E4E"/>
<rect x="15.5" y="15.5" width="100" height="100" stroke="#4E4E4E" stroke-width="5"/>
<rect x="3" y="3" width="125" height="125" stroke="#4E4E4E" stroke-width="5"/>
</svg>
