<svg width="80" height="80" viewBox="0 0 80 80" fill="none" xmlns="http://www.w3.org/2000/svg">
<g clip-path="url(#clip0_494_902)">
<path d="M72 16V8H64V0H56H48H40H32H24H16V8H8V16H0V24V32V40V48V56V64H8V72H16V80H24H32H40H48H56H64V72H72V64H80V56V48V40V32V24V16H72Z" fill="#4E4E4E"/>
<path d="M62.1063 36.9935V30.887H55.9961V36.9935H49.8896V43.1036H55.9961V49.2101H62.1063V43.1036H68.2127V36.9935H62.1063Z" fill="#FFFEFE"/>
<path d="M55.9961 49.2101H49.8896V55.3165H55.9961V49.2101Z" fill="#FFFEFE"/>
<path d="M37.6768 55.3165H31.5703V61.423H37.6768H43.7832H49.8896V55.3165H43.7832H37.6768Z" fill="#FFFEFE"/>
<path d="M43.7832 24.7806H49.8896V18.6741H43.7832H37.6768H31.5703V24.7806H37.6768H43.7832Z" fill="#FFFEFE"/>
<path d="M31.5666 49.2101H25.4602V55.3165H31.5666V49.2101Z" fill="#FFFEFE"/>
<path d="M31.5666 24.7806H25.4602V30.887H31.5666V24.7806Z" fill="#FFFEFE"/>
<path d="M25.4602 36.9935V30.887H19.3538V36.9935V43.1036V49.2101H25.4602V43.1036V36.9935Z" fill="#FFFEFE"/>
</g>
<defs>
<clipPath id="clip0_494_902">
<rect width="80" height="80" fill="white"/>
</clipPath>
</defs>
</svg>
