<svg width="80" height="80" viewBox="0 0 80 80" fill="none" xmlns="http://www.w3.org/2000/svg">
<g clip-path="url(#clip0_88_845)">
<path d="M72 16V8H64V0H56H48H40H32H24H16V8H8V16H0V24V32V40V48V56V64H8V72H16V80H24H32H40H48H56H64V72H72V64H80V56V48V40V32V24V16H72Z" fill="#5E2EFF"/>
<path d="M60.9264 24.3623V30.338V36.3138V42.2895V48.2652V54.2409H54.9507V60.2166H60.9264H66.9021V54.2409V48.2652V42.2895V36.3138V30.338V24.3623H60.9264Z" fill="#FFFEFE"/>
<path d="M48.9749 48.2652H42.9992V42.2895V36.3138V30.338V24.3623H37.0235V30.338V36.3138V42.2895V48.2652H31.0477H25.072V54.2409H31.0477H37.0235V60.2166H42.9992V54.2409H48.9749H54.9506V48.2652H48.9749Z" fill="#FFFEFE"/>
<path d="M54.9507 24.3623H60.9264V18.3866H54.9507H48.975H42.9993V24.3623H48.975H54.9507Z" fill="#FFFEFE"/>
<path d="M31.0478 24.3623H37.0235V18.3866H31.0478H25.0721H19.1001V24.3623H25.0721H31.0478Z" fill="#FFFEFE"/>
<path d="M19.1 48.2652V42.2895V36.3138V30.338V24.3623H13.1243V30.338V36.3138V42.2895V48.2652V54.2409V60.2166H19.1H25.072V54.2409H19.1V48.2652Z" fill="#FFFEFE"/>
</g>
<defs>
<clipPath id="clip0_88_845">
<rect width="80" height="80" fill="white"/>
</clipPath>
</defs>
</svg>
